<?xml version="1.0" encoding="UTF-8"?>
<svg version="1.1" xmlns="http://www.w3.org/2000/svg" width="48" height="48">
<path d="M0 0 C15.84 0 31.68 0 48 0 C48 15.84 48 31.68 48 48 C32.16 48 16.32 48 0 48 C0 32.16 0 16.32 0 0 Z " fill="#0D0E0D" transform="translate(0,0)"/>
<path d="M0 0 C0.66 0 1.32 0 2 0 C2 2.31 2 4.62 2 7 C2.66 7 3.32 7 4 7 C4 5.02 4 3.04 4 1 C7.67387495 0.14701624 11.0447393 -0.10789471 14.8125 -0.0625 C15.78832031 -0.05347656 16.76414062 -0.04445313 17.76953125 -0.03515625 C18.87361328 -0.01775391 18.87361328 -0.01775391 20 0 C20.02712066 1.43739513 20.04645067 2.87493863 20.0625 4.3125 C20.07410156 5.11300781 20.08570312 5.91351563 20.09765625 6.73828125 C20 9 20 9 19 12 C18.34 12 17.68 12 17 12 C17.515625 12.5775 18.03125 13.155 18.5625 13.75 C20 16 20 16 19.6875 18.25 C19.460625 18.8275 19.23375 19.405 19 20 C17.02 20 15.04 20 13 20 C13.33 19.01 13.66 18.02 14 17 C16.0625 16.3125 16.0625 16.3125 18 16 C17.01 15.67 16.02 15.34 15 15 C14.3125 12.9375 14.3125 12.9375 14 11 C11.54700814 10.18233605 10.12810602 9.97372184 7.5625 10.5 C4.7167519 11.05526792 2.78408477 10.71590751 0 10 C0 6.7 0 3.4 0 0 Z " fill="#A5A9A5" transform="translate(9,14)"/>
<path d="M0 0 C2.25 1.375 2.25 1.375 2.9375 3.4375 C3.040625 4.076875 3.14375 4.71625 3.25 5.375 C3.91 5.705 4.57 6.035 5.25 6.375 C4.92 7.035 4.59 7.695 4.25 8.375 C2.59178227 8.74809899 0.92422986 9.08200977 -0.75 9.375 C-1.08 9.705 -1.41 10.035 -1.75 10.375 C-3.74958364 10.41580783 -5.75045254 10.41754356 -7.75 10.375 C-7.75 7.405 -7.75 4.435 -7.75 1.375 C-4.77486836 -0.1550677 -3.31567074 -0.75356153 0 0 Z " fill="#006900" transform="translate(21.75,23.625)"/>
<path d="M0 0 C1.65 0 3.3 0 5 0 C5.02712066 1.43739513 5.04645067 2.87493863 5.0625 4.3125 C5.07410156 5.11300781 5.08570313 5.91351563 5.09765625 6.73828125 C5 9 5 9 4 12 C3.34 12 2.68 12 2 12 C2.515625 12.5775 3.03125 13.155 3.5625 13.75 C5 16 5 16 4.6875 18.25 C4.460625 18.8275 4.23375 19.405 4 20 C2.02 20 0.04 20 -2 20 C-1.67 19.01 -1.34 18.02 -1 17 C1.0625 16.3125 1.0625 16.3125 3 16 C2.01 15.67 1.02 15.34 0 15 C-0.34342449 13.66923011 -0.67619874 12.33568021 -1 11 C-1.99 10.34 -2.98 9.68 -4 9 C-3.01 8.67 -2.02 8.34 -1 8 C-0.67 5.36 -0.34 2.72 0 0 Z " fill="#006800" transform="translate(24,14)"/>
<path d="M0 0 C0 2.97 0 5.94 0 9 C-1.32 9 -2.64 9 -4 9 C-4 8.34 -4 7.68 -4 7 C-3.34 7 -2.68 7 -2 7 C-2 6.34 -2 5.68 -2 5 C-2.66 5 -3.32 5 -4 5 C-4 4.34 -4 3.68 -4 3 C-5.32 2.34 -6.64 1.68 -8 1 C-5.10765685 0.17361624 -3.11257569 0 0 0 Z " fill="#006200" transform="translate(34,25)"/>
<path d="M0 0 C1.32 0 2.64 0 4 0 C4 2.97 4 5.94 4 9 C2.68 9 1.36 9 0 9 C0 6.03 0 3.06 0 0 Z " fill="#BFBFBF" transform="translate(14,14)"/>
<path d="M0 0 C1.32 0 2.64 0 4 0 C4 2.97 4 5.94 4 9 C2.68 9 1.36 9 0 9 C0 6.03 0 3.06 0 0 Z " fill="#C5C5C5" transform="translate(25,14)"/>
<path d="M0 0 C2.4375 1.3125 2.4375 1.3125 3.125 3.375 C3.228125 4.014375 3.33125 4.65375 3.4375 5.3125 C4.0975 5.6425 4.7575 5.9725 5.4375 6.3125 C5.1075 6.9725 4.7775 7.6325 4.4375 8.3125 C3.4475 7.9825 2.4575 7.6525 1.4375 7.3125 C1.1075 5.3325 0.7775 3.3525 0.4375 1.3125 C-0.2225 1.3125 -0.8825 1.3125 -1.5625 1.3125 C-1.8925 2.9625 -2.2225 4.6125 -2.5625 6.3125 C-2.8925 6.3125 -3.2225 6.3125 -3.5625 6.3125 C-3.8925 4.3325 -4.2225 2.3525 -4.5625 0.3125 C-2.5625 -0.6875 -2.5625 -0.6875 0 0 Z " fill="#001900" transform="translate(21.5625,23.6875)"/>
<path d="M0 0 C0.90105469 0.00902344 1.80210938 0.01804687 2.73046875 0.02734375 C3.41753906 0.03894531 4.10460938 0.05054687 4.8125 0.0625 C4.8125 0.7225 4.8125 1.3825 4.8125 2.0625 C3.8225 2.0625 2.8325 2.0625 1.8125 2.0625 C1.4825 3.0525 1.1525 4.0425 0.8125 5.0625 C0.8125 4.0725 0.8125 3.0825 0.8125 2.0625 C-0.115625 2.26875 -1.04375 2.475 -2 2.6875 C-5.1875 3.0625 -5.1875 3.0625 -8.1875 1.0625 C-5.17259443 0.05753148 -3.14568308 -0.04085303 0 0 Z " fill="#001E00" transform="translate(33.1875,22.9375)"/>
<path d="M0 0 C0.33 0 0.66 0 1 0 C1 2.97 1 5.94 1 9 C1.99 9.33 2.98 9.66 4 10 C3.01 10 2.02 10 1 10 C0.67 10.66 0.34 11.32 0 12 C-1.32 11.01 -2.64 10.02 -4 9 C-3.01 8.67 -2.02 8.34 -1 8 C-0.67 5.36 -0.34 2.72 0 0 Z " fill="#515C51" transform="translate(24,14)"/>
</svg>
